# xmcd
#
# Track frame offsets: 
#        150
#        11176
#        25415
#        37511
#        50276
#        61240
#        74871
#        89937
#        101562
#        118231
#
# Disc length: 1753 seconds
#
# Revision: 2
# Processed by: cddbd v1.5.2PL0 Copyright (c) Steve Scherf et al.
# Submitted via: ExactAudioCopyFreeDBPlugin 1.0
#
DISCID=8d06d70a
DTITLE=Conway Twitty - American Music Legends
DYEAR=2006
DGENRE=Country
TTITLE0=Hello Darlin'
TTITLE1=Fifteen Years Ago
TTITLE2=Linda on my Mind
TTITLE3=Tight Fittin' Jeans
TTITLE4=Lead Me On (with Loretta Lynn)
TTITLE5=You've Never Been This Far Before
TTITLE6=I'd Just Love to Lay You Down
TTITLE7=Don't Call Him A Cowboy
TTITLE8=Don't Take it Away
TTITLE9=I Don't Know a Thing About Love (The Moon Song)
EXTD=
EXTT0=
EXTT1=
EXTT2=
EXTT3=
EXTT4=
EXTT5=
EXTT6=
EXTT7=
EXTT8=
EXTT9=
PLAYORDER=
